<mxfile host="app.diagrams.net" agent="Mozilla/5.0 (Windows NT 10.0; Win64; x64) AppleWebKit/537.36 (KHTML, like Gecko) Chrome/134.0.0.0 Safari/537.36" version="26.1.0">
  <diagram name="第 1 页" id="Tc17rAyh3nAKfj_cEDxG">
    <mxGraphModel dx="928" dy="468" grid="1" gridSize="10" guides="1" tooltips="1" connect="1" arrows="1" fold="1" page="1" pageScale="1" pageWidth="827" pageHeight="1169" math="0" shadow="0">
      <root>
        <mxCell id="0" />
        <mxCell id="1" parent="0" />
        <mxCell id="uhiJYErKIzIVlTpviE_C-13" style="edgeStyle=orthogonalEdgeStyle;rounded=0;orthogonalLoop=1;jettySize=auto;html=1;entryX=0;entryY=0.5;entryDx=0;entryDy=0;" edge="1" parent="1" source="uhiJYErKIzIVlTpviE_C-4" target="uhiJYErKIzIVlTpviE_C-14">
          <mxGeometry relative="1" as="geometry">
            <mxPoint x="410" y="210" as="targetPoint" />
          </mxGeometry>
        </mxCell>
        <mxCell id="uhiJYErKIzIVlTpviE_C-16" style="edgeStyle=orthogonalEdgeStyle;rounded=0;orthogonalLoop=1;jettySize=auto;html=1;entryX=0;entryY=0.5;entryDx=0;entryDy=0;" edge="1" parent="1" source="uhiJYErKIzIVlTpviE_C-4" target="uhiJYErKIzIVlTpviE_C-15">
          <mxGeometry relative="1" as="geometry" />
        </mxCell>
        <mxCell id="uhiJYErKIzIVlTpviE_C-4" value="backbone" style="shape=trapezoid;perimeter=trapezoidPerimeter;whiteSpace=wrap;html=1;fixedSize=1;" vertex="1" parent="1">
          <mxGeometry x="220" y="190" width="120" height="60" as="geometry" />
        </mxCell>
        <mxCell id="uhiJYErKIzIVlTpviE_C-9" style="edgeStyle=orthogonalEdgeStyle;rounded=0;orthogonalLoop=1;jettySize=auto;html=1;entryX=0;entryY=0.5;entryDx=0;entryDy=0;" edge="1" parent="1" source="uhiJYErKIzIVlTpviE_C-5" target="uhiJYErKIzIVlTpviE_C-8">
          <mxGeometry relative="1" as="geometry" />
        </mxCell>
        <mxCell id="uhiJYErKIzIVlTpviE_C-5" value="IR" style="rounded=0;whiteSpace=wrap;html=1;" vertex="1" parent="1">
          <mxGeometry x="10" y="150" width="50" height="50" as="geometry" />
        </mxCell>
        <mxCell id="uhiJYErKIzIVlTpviE_C-11" style="edgeStyle=orthogonalEdgeStyle;rounded=0;orthogonalLoop=1;jettySize=auto;html=1;entryX=0;entryY=0.5;entryDx=0;entryDy=0;" edge="1" parent="1" source="uhiJYErKIzIVlTpviE_C-6" target="uhiJYErKIzIVlTpviE_C-4">
          <mxGeometry relative="1" as="geometry" />
        </mxCell>
        <mxCell id="uhiJYErKIzIVlTpviE_C-6" value="RGB" style="rounded=0;whiteSpace=wrap;html=1;" vertex="1" parent="1">
          <mxGeometry x="10" y="230" width="50" height="50" as="geometry" />
        </mxCell>
        <mxCell id="uhiJYErKIzIVlTpviE_C-12" style="edgeStyle=orthogonalEdgeStyle;rounded=0;orthogonalLoop=1;jettySize=auto;html=1;" edge="1" parent="1" source="uhiJYErKIzIVlTpviE_C-8" target="uhiJYErKIzIVlTpviE_C-4">
          <mxGeometry relative="1" as="geometry" />
        </mxCell>
        <mxCell id="uhiJYErKIzIVlTpviE_C-8" value="1*1为3通道" style="rounded=0;whiteSpace=wrap;html=1;" vertex="1" parent="1">
          <mxGeometry x="90" y="165" width="80" height="25" as="geometry" />
        </mxCell>
        <mxCell id="uhiJYErKIzIVlTpviE_C-14" value="S&lt;sup&gt;ir&amp;nbsp;&lt;/sup&gt;&lt;sub&gt;i&lt;/sub&gt;" style="rounded=0;whiteSpace=wrap;html=1;" vertex="1" parent="1">
          <mxGeometry x="450" y="140" width="50" height="50" as="geometry" />
        </mxCell>
        <mxCell id="uhiJYErKIzIVlTpviE_C-15" value="S&lt;sup&gt;rgb&lt;/sup&gt;&lt;sub&gt;&amp;nbsp;i&lt;/sub&gt;" style="rounded=0;whiteSpace=wrap;html=1;" vertex="1" parent="1">
          <mxGeometry x="450" y="220" width="50" height="50" as="geometry" />
        </mxCell>
      </root>
    </mxGraphModel>
  </diagram>
</mxfile>
